AmiriLatin-BoldSlanted.ufo
<glyph name="plus" format="2">
	<unicode hex="002B"/>
	<advance width="529"/>
	<outline>
		<contour>
			<point x="235" y="463" type="line"/>
			<point x="246" y="472"/>
			<point x="272" y="474"/>
			<point x="276" y="474" type="curve" smooth="yes"/>
			<point x="286" y="474"/>
			<point x="292" y="472"/>
			<point x="292" y="465" type="curve" smooth="yes"/>
			<point x="291" y="269" type="line"/>
			<point x="490" y="269" type="line" smooth="yes"/>
			<point x="496" y="269"/>
			<point x="499" y="261"/>
			<point x="499" y="255" type="curve" smooth="yes"/>
			<point x="499" y="234"/>
			<point x="493" y="222"/>
			<point x="485" y="212" type="curve"/>
			<point x="292" y="212" type="line"/>
			<point x="292" y="19" type="line"/>
			<point x="280" y="11"/>
			<point x="256" y="8"/>
			<point x="246" y="8" type="curve" smooth="yes"/>
			<point x="240" y="8"/>
			<point x="235" y="12"/>
			<point x="235" y="16" type="curve" smooth="yes"/>
			<point x="235" y="212" type="line"/>
			<point x="36" y="212" type="line" smooth="yes"/>
			<point x="31" y="212"/>
			<point x="30" y="218"/>
			<point x="30" y="228" type="curve" smooth="yes"/>
			<point x="30" y="232"/>
			<point x="32" y="257"/>
			<point x="40" y="269" type="curve"/>
			<point x="234" y="269" type="line"/>
		</contour>
	</outline>
</glyph>
<glyph name="eight" format="2">
	<unicode hex="0038"/>
	<advance width="532"/>
	<outline>
		<contour>
			<point x="270" y="35" type="curve" smooth="yes"/>
			<point x="318" y="35"/>
			<point x="343" y="71"/>
			<point x="343" y="115" type="curve" smooth="yes"/>
			<point x="343" y="190"/>
			<point x="263" y="248"/>
			<point x="234" y="269" type="curve" smooth="yes"/>
			<point x="229" y="273"/>
			<point x="228" y="273"/>
			<point x="226" y="273" type="curve" smooth="yes"/>
			<point x="224" y="273"/>
			<point x="222" y="274"/>
			<point x="221" y="272" type="curve" smooth="yes"/>
			<point x="200" y="246"/>
			<point x="189" y="201"/>
			<point x="189" y="152" type="curve" smooth="yes"/>
			<point x="189" y="96"/>
			<point x="212" y="35"/>
		</contour>
		<contour>
			<point x="262" y="578" type="curve" smooth="yes"/>
			<point x="226" y="578"/>
			<point x="202" y="543"/>
			<point x="202" y="500" type="curve" smooth="yes"/>
			<point x="202" y="433"/>
			<point x="262" y="390"/>
			<point x="286" y="377" type="curve" smooth="yes"/>
			<point x="289" y="375"/>
			<point x="294" y="372"/>
			<point x="298" y="372" type="curve" smooth="yes"/>
			<point x="301" y="372"/>
			<point x="303" y="374"/>
			<point x="304" y="375" type="curve" smooth="yes"/>
			<point x="322" y="401"/>
			<point x="324" y="436"/>
			<point x="324" y="475" type="curve" smooth="yes"/>
			<point x="324" y="519"/>
			<point x="306" y="578"/>
		</contour>
		<contour>
			<point x="264" y="618" type="curve" smooth="yes"/>
			<point x="354" y="618"/>
			<point x="446" y="571"/>
			<point x="446" y="478" type="curve" smooth="yes"/>
			<point x="446" y="416"/>
			<point x="394" y="369"/>
			<point x="338" y="346" type="curve" smooth="yes"/>
			<point x="336" y="345"/>
			<point x="336" y="342"/>
			<point x="338" y="341" type="curve" smooth="yes"/>
			<point x="374" y="320"/>
			<point x="471" y="251"/>
			<point x="471" y="163" type="curve" smooth="yes"/>
			<point x="471" y="59"/>
			<point x="366" y="-6"/>
			<point x="262" y="-6" type="curve" smooth="yes"/>
			<point x="163" y="-6"/>
			<point x="62" y="32"/>
			<point x="62" y="149" type="curve" smooth="yes"/>
			<point x="62" y="230"/>
			<point x="128" y="281"/>
			<point x="187" y="299" type="curve" smooth="yes"/>
			<point x="189" y="300"/>
			<point x="189" y="301"/>
			<point x="185" y="304" type="curve" smooth="yes"/>
			<point x="151" y="333"/>
			<point x="76" y="383"/>
			<point x="76" y="475" type="curve" smooth="yes"/>
			<point x="76" y="561"/>
			<point x="172" y="618"/>
		</contour>
	</outline>
</glyph>
<glyph name="S" format="2">
	<unicode hex="0053"/>
	<advance width="482"/>
	<outline>
		<contour>
			<point x="324" y="654" type="curve" smooth="yes"/>
			<point x="378" y="654"/>
			<point x="419" y="640"/>
			<point x="472" y="627" type="curve"/>
			<point x="466" y="575"/>
			<point x="459" y="525"/>
			<point x="450" y="465" type="curve"/>
			<point x="446" y="461"/>
			<point x="443" y="459"/>
			<point x="439" y="459" type="curve" smooth="yes"/>
			<point x="436" y="459"/>
			<point x="413" y="458"/>
			<point x="413" y="466" type="curve" smooth="yes"/>
			<point x="416" y="521"/>
			<point x="390" y="613"/>
			<point x="320" y="613" type="curve" smooth="yes"/>
			<point x="285" y="613"/>
			<point x="240" y="593"/>
			<point x="227" y="528" type="curve" smooth="yes"/>
			<point x="215" y="467"/>
			<point x="280" y="412"/>
			<point x="328" y="372" type="curve" smooth="yes"/>
			<point x="380" y="329"/>
			<point x="445" y="287"/>
			<point x="423" y="171" type="curve" smooth="yes"/>
			<point x="402" y="64"/>
			<point x="290" y="-10"/>
			<point x="190" y="-10" type="curve" smooth="yes"/>
			<point x="136" y="-10"/>
			<point x="74" y="2"/>
			<point x="22" y="16" type="curve"/>
			<point x="21" y="59"/>
			<point x="28" y="155"/>
			<point x="32" y="182" type="curve"/>
			<point x="37" y="188"/>
			<point x="57" y="195"/>
			<point x="62" y="195" type="curve" smooth="yes"/>
			<point x="69" y="195"/>
			<point x="71" y="194"/>
			<point x="71" y="188" type="curve" smooth="yes"/>
			<point x="69" y="135"/>
			<point x="107" y="31"/>
			<point x="189" y="31" type="curve" smooth="yes"/>
			<point x="235" y="31"/>
			<point x="281" y="57"/>
			<point x="295" y="126" type="curve" smooth="yes"/>
			<point x="309" y="195"/>
			<point x="230" y="252"/>
			<point x="191" y="285" type="curve" smooth="yes"/>
			<point x="134" y="333"/>
			<point x="77" y="376"/>
			<point x="97" y="478" type="curve" smooth="yes"/>
			<point x="117" y="579"/>
			<point x="230" y="654"/>
		</contour>
	</outline>
</glyph>
<glyph name="T" format="2">
	<unicode hex="0054"/>
	<advance width="582"/>
	<outline>
		<contour>
			<point x="355" y="642" type="line" smooth="yes"/>
			<point x="516" y="642" type="line" smooth="yes"/>
			<point x="581" y="642"/>
			<point x="596" y="660"/>
			<point x="613" y="660" type="curve" smooth="yes"/>
			<point x="620" y="660"/>
			<point x="621" y="659"/>
			<point x="624" y="657" type="curve"/>
			<point x="613" y="478" type="line"/>
			<point x="610" y="475"/>
			<point x="594" y="471"/>
			<point x="586" y="471" type="curve" smooth="yes"/>
			<point x="581" y="471"/>
			<point x="578" y="472"/>
			<point x="578" y="476" type="curve" smooth="yes"/>
			<point x="581" y="539"/>
			<point x="551" y="599"/>
			<point x="505" y="599" type="curve" smooth="yes"/>
			<point x="420" y="599" type="line"/>
			<point x="331" y="142" type="line" smooth="yes"/>
			<point x="323" y="100"/>
			<point x="316" y="70"/>
			<point x="320" y="50" type="curve" smooth="yes"/>
			<point x="322" y="37"/>
			<point x="363" y="33"/>
			<point x="375" y="32" type="curve"/>
			<point x="378" y="25"/>
			<point x="373" y="2"/>
			<point x="368" y="-4" type="curve"/>
			<point x="334" y="0"/>
			<point x="278" y="3"/>
			<point x="240" y="3" type="curve" smooth="yes"/>
			<point x="202" y="3"/>
			<point x="146" y="0"/>
			<point x="110" y="-4" type="curve"/>
			<point x="107" y="2"/>
			<point x="111" y="25"/>
			<point x="117" y="32" type="curve"/>
			<point x="129" y="33"/>
			<point x="172" y="37"/>
			<point x="179" y="50" type="curve" smooth="yes"/>
			<point x="190" y="70"/>
			<point x="196" y="100"/>
			<point x="204" y="142" type="curve" smooth="yes"/>
			<point x="293" y="599" type="line"/>
			<point x="208" y="599" type="line" smooth="yes"/>
			<point x="162" y="599"/>
			<point x="108" y="539"/>
			<point x="87" y="476" type="curve" smooth="yes"/>
			<point x="85" y="472"/>
			<point x="82" y="471"/>
			<point x="77" y="471" type="curve" smooth="yes"/>
			<point x="69" y="471"/>
			<point x="55" y="475"/>
			<point x="53" y="478" type="curve"/>
			<point x="111" y="657" type="line"/>
			<point x="115" y="659"/>
			<point x="116" y="660"/>
			<point x="123" y="660" type="curve" smooth="yes"/>
			<point x="140" y="660"/>
			<point x="149" y="642"/>
			<point x="214" y="642" type="curve" smooth="yes"/>
		</contour>
	</outline>
</glyph>
<glyph name="W" format="2">
	<unicode hex="0057"/>
	<advance width="856"/>
	<outline>
		<contour>
			<point x="195" y="640" type="curve" smooth="yes"/>
			<point x="233" y="640"/>
			<point x="288" y="642"/>
			<point x="324" y="646" type="curve"/>
			<point x="327" y="640"/>
			<point x="323" y="617"/>
			<point x="317" y="610" type="curve"/>
			<point x="305" y="609"/>
			<point x="258" y="605"/>
			<point x="258" y="572" type="curve" smooth="yes"/>
			<point x="258" y="567"/>
			<point x="260" y="539"/>
			<point x="264" y="511" type="curve" smooth="yes"/>
			<point x="281" y="392"/>
			<point x="301" y="245"/>
			<point x="301" y="245" type="curve"/>
			<point x="301" y="245"/>
			<point x="458" y="547"/>
			<point x="492" y="610" type="curve" smooth="yes"/>
			<point x="502" y="629"/>
			<point x="518" y="646"/>
			<point x="528" y="646" type="curve" smooth="yes"/>
			<point x="532" y="646"/>
			<point x="533" y="642"/>
			<point x="535" y="631" type="curve" smooth="yes"/>
			<point x="563" y="467"/>
			<point x="609" y="209"/>
			<point x="609" y="209" type="curve"/>
			<point x="609" y="209"/>
			<point x="740" y="478"/>
			<point x="756" y="509" type="curve" smooth="yes"/>
			<point x="768" y="534"/>
			<point x="785" y="566"/>
			<point x="789" y="587" type="curve" smooth="yes"/>
			<point x="792" y="605"/>
			<point x="735" y="609"/>
			<point x="723" y="610" type="curve"/>
			<point x="720" y="617"/>
			<point x="726" y="640"/>
			<point x="731" y="646" type="curve"/>
			<point x="773" y="642"/>
			<point x="795" y="640"/>
			<point x="837" y="640" type="curve" smooth="yes"/>
			<point x="877" y="640"/>
			<point x="903" y="644"/>
			<point x="941" y="646" type="curve"/>
			<point x="944" y="640"/>
			<point x="939" y="617"/>
			<point x="933" y="610" type="curve"/>
			<point x="921" y="609"/>
			<point x="881" y="609"/>
			<point x="867" y="593" type="curve" smooth="yes"/>
			<point x="849" y="573"/>
			<point x="830" y="546"/>
			<point x="813" y="512" type="curve" smooth="yes"/>
			<point x="721" y="327"/>
			<point x="666" y="220"/>
			<point x="573" y="39" type="curve" smooth="yes"/>
			<point x="560" y="15"/>
			<point x="538" y="-11"/>
			<point x="527" y="-11" type="curve" smooth="yes"/>
			<point x="519" y="-11"/>
			<point x="515" y="-4"/>
			<point x="512" y="3" type="curve"/>
			<point x="441" y="408" type="line"/>
			<point x="441" y="408"/>
			<point x="326" y="184"/>
			<point x="254" y="43" type="curve" smooth="yes"/>
			<point x="248" y="32"/>
			<point x="223" y="-11"/>
			<point x="212" y="-11" type="curve" smooth="yes"/>
			<point x="204" y="-11"/>
			<point x="201" y="-4"/>
			<point x="198" y="3" type="curve"/>
			<point x="130" y="498" type="line" smooth="yes"/>
			<point x="127" y="527"/>
			<point x="125" y="536"/>
			<point x="119" y="576" type="curve" smooth="yes"/>
			<point x="115" y="602"/>
			<point x="71" y="609"/>
			<point x="59" y="610" type="curve"/>
			<point x="55" y="617"/>
			<point x="61" y="640"/>
			<point x="66" y="646" type="curve"/>
			<point x="100" y="642"/>
			<point x="157" y="640"/>
		</contour>
	</outline>
</glyph>
<glyph name="X" format="2">
	<unicode hex="0058"/>
	<advance width="643"/>
	<outline>
		<contour>
			<point x="233" y="641" type="curve" smooth="yes"/>
			<point x="278" y="641"/>
			<point x="328" y="644"/>
			<point x="365" y="646" type="curve"/>
			<point x="366" y="640"/>
			<point x="361" y="610"/>
			<point x="356" y="610" type="curve"/>
			<point x="343" y="610"/>
			<point x="309" y="605"/>
			<point x="305" y="590" type="curve" smooth="yes"/>
			<point x="304" y="584"/>
			<point x="305" y="574"/>
			<point x="308" y="568" type="curve" smooth="yes"/>
			<point x="377" y="404" type="line"/>
			<point x="428" y="460"/>
			<point x="507" y="538"/>
			<point x="527" y="570" type="curve" smooth="yes"/>
			<point x="530" y="574"/>
			<point x="531" y="577"/>
			<point x="531" y="580" type="curve" smooth="yes"/>
			<point x="534" y="597"/>
			<point x="502" y="610"/>
			<point x="471" y="610" type="curve"/>
			<point x="466" y="610"/>
			<point x="471" y="641"/>
			<point x="477" y="646" type="curve"/>
			<point x="508" y="642"/>
			<point x="563" y="640"/>
			<point x="596" y="640" type="curve" smooth="yes"/>
			<point x="643" y="640"/>
			<point x="679" y="642"/>
			<point x="706" y="646" type="curve"/>
			<point x="708" y="640"/>
			<point x="703" y="610"/>
			<point x="698" y="610" type="curve"/>
			<point x="691" y="610"/>
			<point x="636" y="609"/>
			<point x="587" y="559" type="curve" smooth="yes"/>
			<point x="393" y="360" type="line"/>
			<point x="445" y="236"/>
			<point x="509" y="91"/>
			<point x="520" y="74" type="curve" smooth="yes"/>
			<point x="540" y="40"/>
			<point x="589" y="32"/>
			<point x="602" y="32" type="curve"/>
			<point x="604" y="23"/>
			<point x="601" y="4"/>
			<point x="595" y="-4" type="curve"/>
			<point x="559" y="-2"/>
			<point x="487" y="2"/>
			<point x="450" y="2" type="curve" smooth="yes"/>
			<point x="399" y="2"/>
			<point x="357" y="-2"/>
			<point x="306" y="-4" type="curve"/>
			<point x="302" y="1"/>
			<point x="309" y="32"/>
			<point x="314" y="32" type="curve" smooth="yes"/>
			<point x="324" y="32"/>
			<point x="368" y="42"/>
			<point x="371" y="60" type="curve" smooth="yes"/>
			<point x="372" y="63"/>
			<point x="371" y="67"/>
			<point x="370" y="70" type="curve" smooth="yes"/>
			<point x="287" y="267" type="line"/>
			<point x="269" y="247"/>
			<point x="160" y="127"/>
			<point x="126" y="81" type="curve" smooth="yes"/>
			<point x="120" y="73"/>
			<point x="116" y="67"/>
			<point x="115" y="64" type="curve" smooth="yes"/>
			<point x="110" y="41"/>
			<point x="158" y="32"/>
			<point x="185" y="32" type="curve"/>
			<point x="188" y="25"/>
			<point x="186" y="7"/>
			<point x="181" y="-4" type="curve"/>
			<point x="152" y="-2"/>
			<point x="95" y="2"/>
			<point x="62" y="2" type="curve" smooth="yes"/>
			<point x="15" y="2"/>
			<point x="-19" y="-2"/>
			<point x="-56" y="-4" type="curve"/>
			<point x="-59" y="2"/>
			<point x="-55" y="25"/>
			<point x="-49" y="32" type="curve"/>
			<point x="-42" y="32"/>
			<point x="22" y="34"/>
			<point x="59" y="77" type="curve" smooth="yes"/>
			<point x="267" y="314" type="line"/>
			<point x="181" y="524" type="line" smooth="yes"/>
			<point x="170" y="550"/>
			<point x="157" y="586"/>
			<point x="146" y="596" type="curve" smooth="yes"/>
			<point x="135" y="606"/>
			<point x="97" y="610"/>
			<point x="86" y="610" type="curve"/>
			<point x="81" y="610"/>
			<point x="87" y="641"/>
			<point x="93" y="646" type="curve"/>
			<point x="137" y="644"/>
			<point x="188" y="641"/>
		</contour>
	</outline>
</glyph>
<glyph name="o" format="2">
	<unicode hex="006F"/>
	<advance width="444"/>
	<outline>
		<contour>
			<point x="256" y="399" type="curve" smooth="yes"/>
			<point x="183" y="399"/>
			<point x="137" y="229"/>
			<point x="137" y="122" type="curve" smooth="yes"/>
			<point x="137" y="99"/>
			<point x="137" y="33"/>
			<point x="170" y="33" type="curve" smooth="yes"/>
			<point x="243" y="33"/>
			<point x="289" y="204"/>
			<point x="289" y="305" type="curve" smooth="yes"/>
			<point x="289" y="337"/>
			<point x="289" y="399"/>
		</contour>
		<contour>
			<point x="267" y="438" type="curve" smooth="yes"/>
			<point x="348" y="438"/>
			<point x="411" y="406"/>
			<point x="411" y="290" type="curve" smooth="yes"/>
			<point x="411" y="149"/>
			<point x="271" y="-6"/>
			<point x="154" y="-6" type="curve" smooth="yes"/>
			<point x="73" y="-6"/>
			<point x="15" y="45"/>
			<point x="15" y="139" type="curve" smooth="yes"/>
			<point x="15" y="280"/>
			<point x="150" y="438"/>
		</contour>
	</outline>
</glyph>
<glyph name="p" format="2">
	<unicode hex="0070"/>
	<advance width="484"/>
	<outline>
		<contour>
			<point x="294" y="356" type="curve" smooth="yes"/>
			<point x="265" y="356"/>
			<point x="235" y="336"/>
			<point x="214" y="315" type="curve"/>
			<point x="209" y="289"/>
			<point x="180" y="146"/>
			<point x="180" y="146" type="curve" smooth="yes"/>
			<point x="165" y="71"/>
			<point x="177" y="38"/>
			<point x="202" y="38" type="curve" smooth="yes"/>
			<point x="271" y="38"/>
			<point x="332" y="210"/>
			<point x="332" y="292" type="curve" smooth="yes"/>
			<point x="332" y="324"/>
			<point x="325" y="356"/>
		</contour>
		<contour>
			<point x="362" y="438" type="curve" smooth="yes"/>
			<point x="424" y="438"/>
			<point x="458" y="388"/>
			<point x="458" y="320" type="curve" smooth="yes"/>
			<point x="458" y="156"/>
			<point x="294" y="-5"/>
			<point x="175" y="-5" type="curve" smooth="yes"/>
			<point x="169" y="-5"/>
			<point x="157" y="-4"/>
			<point x="148" y="0" type="curve"/>
			<point x="123" y="-123" type="line" smooth="yes"/>
			<point x="121" y="-132"/>
			<point x="120" y="-140"/>
			<point x="120" y="-150" type="curve" smooth="yes"/>
			<point x="120" y="-155"/>
			<point x="124" y="-170"/>
			<point x="134" y="-173" type="curve" smooth="yes"/>
			<point x="151" y="-177"/>
			<point x="177" y="-176"/>
			<point x="180" y="-176" type="curve" smooth="yes"/>
			<point x="184" y="-177"/>
			<point x="181" y="-204"/>
			<point x="176" y="-206" type="curve"/>
			<point x="163" y="-206"/>
			<point x="153" y="-205"/>
			<point x="142" y="-205" type="curve" smooth="yes"/>
			<point x="92" y="-205"/>
			<point x="6" y="-207"/>
			<point x="-51" y="-214" type="curve"/>
			<point x="-56" y="-213"/>
			<point x="-54" y="-186"/>
			<point x="-49" y="-183" type="curve"/>
			<point x="-31" y="-183"/>
			<point x="-19" y="-178"/>
			<point x="-10" y="-167" type="curve" smooth="yes"/>
			<point x="-3" y="-158"/>
			<point x="1" y="-147"/>
			<point x="6" y="-125" type="curve" smooth="yes"/>
			<point x="79" y="227" type="line"/>
			<point x="32" y="180" type="line"/>
			<point x="28" y="185"/>
			<point x="25" y="199"/>
			<point x="25" y="206" type="curve" smooth="yes"/>
			<point x="25" y="217"/>
			<point x="34" y="228"/>
			<point x="40" y="233" type="curve" smooth="yes"/>
			<point x="90" y="280" type="line"/>
			<point x="119" y="434" type="line"/>
			<point x="130" y="437"/>
			<point x="168" y="438"/>
			<point x="179" y="438" type="curve" smooth="yes"/>
			<point x="190" y="438"/>
			<point x="225" y="436"/>
			<point x="235" y="431" type="curve"/>
			<point x="232" y="413"/>
			<point x="224" y="373"/>
			<point x="222" y="364" type="curve"/>
			<point x="249" y="394"/>
			<point x="312" y="438"/>
		</contour>
	</outline>
</glyph>
<glyph name="s" format="2">
	<unicode hex="0073"/>
	<advance width="357"/>
	<outline>
		<contour>
			<point x="218" y="438" type="curve" smooth="yes"/>
			<point x="270" y="438"/>
			<point x="304" y="425"/>
			<point x="325" y="408" type="curve"/>
			<point x="334" y="398"/>
			<point x="336" y="377"/>
			<point x="336" y="369" type="curve" smooth="yes"/>
			<point x="336" y="348"/>
			<point x="318" y="319"/>
			<point x="287" y="319" type="curve" smooth="yes"/>
			<point x="263" y="319"/>
			<point x="242" y="345"/>
			<point x="229" y="364" type="curve" smooth="yes"/>
			<point x="216" y="384"/>
			<point x="205" y="400"/>
			<point x="182" y="400" type="curve" smooth="yes"/>
			<point x="161" y="400"/>
			<point x="143" y="381"/>
			<point x="143" y="355" type="curve" smooth="yes"/>
			<point x="143" y="319"/>
			<point x="201" y="280"/>
			<point x="237" y="245" type="curve" smooth="yes"/>
			<point x="260" y="223"/>
			<point x="292" y="195"/>
			<point x="292" y="134" type="curve" smooth="yes"/>
			<point x="292" y="47"/>
			<point x="208" y="-7"/>
			<point x="113" y="-7" type="curve" smooth="yes"/>
			<point x="74" y="-7"/>
			<point x="32" y="6"/>
			<point x="11" y="23" type="curve"/>
			<point x="2" y="34"/>
			<point x="-1" y="50"/>
			<point x="-1" y="61" type="curve" smooth="yes"/>
			<point x="-1" y="86"/>
			<point x="18" y="113"/>
			<point x="46" y="113" type="curve" smooth="yes"/>
			<point x="70" y="113"/>
			<point x="85" y="95"/>
			<point x="104" y="69" type="curve" smooth="yes"/>
			<point x="121" y="46"/>
			<point x="133" y="32"/>
			<point x="157" y="32" type="curve" smooth="yes"/>
			<point x="178" y="32"/>
			<point x="201" y="56"/>
			<point x="201" y="74" type="curve" smooth="yes"/>
			<point x="201" y="117"/>
			<point x="138" y="156"/>
			<point x="101" y="197" type="curve" smooth="yes"/>
			<point x="77" y="224"/>
			<point x="53" y="244"/>
			<point x="53" y="303" type="curve" smooth="yes"/>
			<point x="53" y="381"/>
			<point x="123" y="438"/>
		</contour>
	</outline>
</glyph>
<glyph name="u" format="2">
	<unicode hex="0075"/>
	<advance width="520"/>
	<outline>
		<contour>
			<point x="282" y="110" type="curve" smooth="yes"/>
			<point x="286" y="131"/>
			<point x="291" y="151"/>
			<point x="294" y="162" type="curve"/>
			<point x="257" y="83"/>
			<point x="165" y="-8"/>
			<point x="123" y="-8" type="curve" smooth="yes"/>
			<point x="73" y="-8"/>
			<point x="62" y="16"/>
			<point x="62" y="76" type="curve" smooth="yes"/>
			<point x="62" y="107"/>
			<point x="75" y="174"/>
			<point x="80" y="199" type="curve" smooth="yes"/>
			<point x="88" y="239"/>
			<point x="94" y="262"/>
			<point x="100" y="302" type="curve" smooth="yes"/>
			<point x="101" y="306"/>
			<point x="104" y="329"/>
			<point x="104" y="334" type="curve" smooth="yes"/>
			<point x="104" y="343"/>
			<point x="100" y="354"/>
			<point x="90" y="354" type="curve" smooth="yes"/>
			<point x="69" y="354"/>
			<point x="24" y="301"/>
			<point x="21" y="295" type="curve"/>
			<point x="14" y="295"/>
			<point x="7" y="315"/>
			<point x="7" y="321" type="curve"/>
			<point x="24" y="352"/>
			<point x="105" y="438"/>
			<point x="158" y="438" type="curve" smooth="yes"/>
			<point x="197" y="438"/>
			<point x="224" y="414"/>
			<point x="224" y="369" type="curve" smooth="yes"/>
			<point x="224" y="355"/>
			<point x="217" y="321"/>
			<point x="215" y="311" type="curve" smooth="yes"/>
			<point x="213" y="299"/>
			<point x="192" y="194"/>
			<point x="192" y="194" type="curve" smooth="yes"/>
			<point x="190" y="182"/>
			<point x="181" y="130"/>
			<point x="181" y="120" type="curve" smooth="yes"/>
			<point x="181" y="110"/>
			<point x="185" y="100"/>
			<point x="196" y="100" type="curve" smooth="yes"/>
			<point x="224" y="100"/>
			<point x="306" y="243"/>
			<point x="330" y="363" type="curve" smooth="yes"/>
			<point x="344" y="431" type="line"/>
			<point x="354" y="434"/>
			<point x="387" y="437"/>
			<point x="398" y="437" type="curve" smooth="yes"/>
			<point x="409" y="437"/>
			<point x="444" y="434"/>
			<point x="456" y="431" type="curve"/>
			<point x="399" y="129" type="line" smooth="yes"/>
			<point x="398" y="124"/>
			<point x="396" y="102"/>
			<point x="396" y="97" type="curve" smooth="yes"/>
			<point x="396" y="88"/>
			<point x="399" y="76"/>
			<point x="409" y="76" type="curve" smooth="yes"/>
			<point x="430" y="76"/>
			<point x="476" y="130"/>
			<point x="479" y="136" type="curve"/>
			<point x="486" y="136"/>
			<point x="492" y="115"/>
			<point x="492" y="109" type="curve"/>
			<point x="475" y="78"/>
			<point x="390" y="-8"/>
			<point x="337" y="-8" type="curve" smooth="yes"/>
			<point x="305" y="-8"/>
			<point x="275" y="12"/>
			<point x="275" y="62" type="curve" smooth="yes"/>
			<point x="275" y="69"/>
			<point x="278" y="89"/>
		</contour>
	</outline>
</glyph>
<glyph name="w" format="2">
	<unicode hex="0077"/>
	<advance width="708"/>
	<outline>
		<contour>
			<point x="447" y="396" type="curve"/>
			<point x="447" y="345"/>
			<point x="453" y="281"/>
			<point x="460" y="225" type="curve" smooth="yes"/>
			<point x="468" y="164"/>
			<point x="477" y="114"/>
			<point x="481" y="109" type="curve"/>
			<point x="506" y="123"/>
			<point x="546" y="157"/>
			<point x="571" y="201" type="curve" smooth="yes"/>
			<point x="592" y="238"/>
			<point x="595" y="273"/>
			<point x="595" y="295" type="curve" smooth="yes"/>
			<point x="595" y="323"/>
			<point x="578" y="355"/>
			<point x="554" y="375" type="curve"/>
			<point x="554" y="411"/>
			<point x="595" y="438"/>
			<point x="618" y="438" type="curve" smooth="yes"/>
			<point x="655" y="438"/>
			<point x="694" y="415"/>
			<point x="694" y="349" type="curve" smooth="yes"/>
			<point x="694" y="225"/>
			<point x="453" y="-4"/>
			<point x="381" y="-4" type="curve"/>
			<point x="367" y="15"/>
			<point x="358" y="57"/>
			<point x="350" y="100" type="curve" smooth="yes"/>
			<point x="344" y="132"/>
			<point x="340" y="165"/>
			<point x="339" y="188" type="curve"/>
			<point x="308" y="123"/>
			<point x="197" y="23"/>
			<point x="127" y="-5" type="curve"/>
			<point x="106" y="44"/>
			<point x="89" y="164"/>
			<point x="89" y="283" type="curve" smooth="yes"/>
			<point x="89" y="326" type="line" smooth="yes"/>
			<point x="89" y="335"/>
			<point x="88" y="348"/>
			<point x="78" y="348" type="curve" smooth="yes"/>
			<point x="63" y="348"/>
			<point x="24" y="301"/>
			<point x="21" y="295" type="curve"/>
			<point x="14" y="295"/>
			<point x="8" y="315"/>
			<point x="8" y="321" type="curve"/>
			<point x="26" y="353"/>
			<point x="106" y="438"/>
			<point x="159" y="438" type="curve" smooth="yes"/>
			<point x="201" y="438"/>
			<point x="208" y="413"/>
			<point x="208" y="384" type="curve" smooth="yes"/>
			<point x="208" y="384"/>
			<point x="208" y="365"/>
			<point x="208" y="353" type="curve" smooth="yes"/>
			<point x="208" y="333" type="line" smooth="yes"/>
			<point x="208" y="226"/>
			<point x="221" y="128"/>
			<point x="229" y="118" type="curve"/>
			<point x="253" y="135"/>
			<point x="284" y="176"/>
			<point x="303" y="213" type="curve" smooth="yes"/>
			<point x="317" y="240"/>
			<point x="331" y="280"/>
			<point x="337" y="315" type="curve"/>
			<point x="345" y="348"/>
			<point x="426" y="396"/>
		</contour>
	</outline>
</glyph>
<glyph name="cent" format="2">
	<unicode hex="00A2"/>
	<advance width="396"/>
	<outline>
		<contour>
			<point x="274" y="463" type="line"/>
			<point x="281" y="463"/>
			<point x="310" y="462"/>
			<point x="309" y="455" type="curve"/>
			<point x="137" y="-44" type="line"/>
			<point x="129" y="-44"/>
			<point x="102" y="-42"/>
			<point x="103" y="-35" type="curve"/>
		</contour>
		<component base="c" xOffset="10"/>
	</outline>
</glyph>
<glyph name="registered" format="2">
	<unicode hex="00AE"/>
	<advance width="637"/>
	<outline>
		<contour>
			<point x="317" y="489" type="curve" smooth="yes"/>
			<point x="366" y="489"/>
			<point x="407" y="464"/>
			<point x="407" y="417" type="curve" smooth="yes"/>
			<point x="407" y="385"/>
			<point x="367" y="359"/>
			<point x="348" y="354" type="curve"/>
			<point x="376" y="316"/>
			<point x="408" y="281"/>
			<point x="408" y="281" type="curve" smooth="yes"/>
			<point x="436" y="249"/>
			<point x="461" y="245"/>
			<point x="464" y="245" type="curve"/>
			<point x="466" y="242"/>
			<point x="464" y="230"/>
			<point x="464" y="229" type="curve"/>
			<point x="452" y="228"/>
			<point x="436" y="227"/>
			<point x="420" y="227" type="curve" smooth="yes"/>
			<point x="390" y="227"/>
			<point x="373" y="240"/>
			<point x="355" y="262" type="curve" smooth="yes"/>
			<point x="297" y="341" type="line" smooth="yes"/>
			<point x="297" y="341"/>
			<point x="293" y="347"/>
			<point x="290" y="347" type="curve" smooth="yes"/>
			<point x="284" y="347" type="line"/>
			<point x="284" y="288" type="line" smooth="yes"/>
			<point x="284" y="271"/>
			<point x="284" y="260"/>
			<point x="287" y="252" type="curve" smooth="yes"/>
			<point x="289" y="247"/>
			<point x="307" y="244"/>
			<point x="312" y="244" type="curve"/>
			<point x="314" y="241"/>
			<point x="314" y="231"/>
			<point x="312" y="229" type="curve"/>
			<point x="296" y="231"/>
			<point x="273" y="231"/>
			<point x="256" y="231" type="curve" smooth="yes"/>
			<point x="239" y="231"/>
			<point x="214" y="231"/>
			<point x="198" y="229" type="curve"/>
			<point x="196" y="231"/>
			<point x="196" y="241"/>
			<point x="198" y="244" type="curve"/>
			<point x="203" y="244"/>
			<point x="222" y="247"/>
			<point x="224" y="252" type="curve" smooth="yes"/>
			<point x="227" y="260"/>
			<point x="227" y="271"/>
			<point x="227" y="288" type="curve" smooth="yes"/>
			<point x="227" y="431" type="line" smooth="yes"/>
			<point x="227" y="448"/>
			<point x="227" y="459"/>
			<point x="224" y="467" type="curve" smooth="yes"/>
			<point x="222" y="472"/>
			<point x="203" y="473"/>
			<point x="198" y="473" type="curve"/>
			<point x="196" y="476"/>
			<point x="196" y="487"/>
			<point x="198" y="489" type="curve"/>
			<point x="216" y="488"/>
			<point x="240" y="488"/>
			<point x="257" y="488" type="curve" smooth="yes"/>
			<point x="274" y="488"/>
			<point x="294" y="489"/>
		</contour>
		<contour>
			<point x="347" y="414" type="curve" smooth="yes"/>
			<point x="347" y="445"/>
			<point x="332" y="471"/>
			<point x="306" y="471" type="curve" smooth="yes"/>
			<point x="297" y="471"/>
			<point x="288" y="471"/>
			<point x="286" y="467" type="curve" smooth="yes"/>
			<point x="284" y="462"/>
			<point x="284" y="454"/>
			<point x="284" y="442" type="curve" smooth="yes"/>
			<point x="284" y="365" type="line"/>
			<point x="300" y="365" type="line" smooth="yes"/>
			<point x="325" y="365"/>
			<point x="347" y="384"/>
		</contour>
		<contour>
			<point x="96" y="353" type="curve" smooth="yes"/>
			<point x="96" y="230"/>
			<point x="195" y="130"/>
			<point x="318" y="130" type="curve" smooth="yes"/>
			<point x="441" y="130"/>
			<point x="541" y="230"/>
			<point x="541" y="353" type="curve" smooth="yes"/>
			<point x="541" y="476"/>
			<point x="441" y="575"/>
			<point x="318" y="575" type="curve" smooth="yes"/>
			<point x="195" y="575"/>
			<point x="96" y="476"/>
		</contour>
		<contour>
			<point x="52" y="354" type="curve" smooth="yes"/>
			<point x="52" y="501"/>
			<point x="171" y="620"/>
			<point x="318" y="620" type="curve" smooth="yes"/>
			<point x="465" y="620"/>
			<point x="586" y="501"/>
			<point x="586" y="354" type="curve" smooth="yes"/>
			<point x="586" y="207"/>
			<point x="465" y="87"/>
			<point x="318" y="87" type="curve" smooth="yes"/>
			<point x="171" y="87"/>
			<point x="52" y="207"/>
		</contour>
	</outline>
</glyph>
<glyph name="periodcentered" format="2">
	<unicode hex="00B7"/>
	<advance width="292"/>
	<outline>
		<contour>
			<point x="127.78" y="244" type="curve" smooth="yes"/>
			<point x="127.78" y="290"/>
			<point x="169.78" y="330"/>
			<point x="210.78" y="330" type="curve" smooth="yes"/>
			<point x="241.78" y="330"/>
			<point x="264.78" y="305"/>
			<point x="264.78" y="273" type="curve" smooth="yes"/>
			<point x="264.78" y="230"/>
			<point x="224.78" y="184"/>
			<point x="183.78" y="184" type="curve" smooth="yes"/>
			<point x="150.78" y="184"/>
			<point x="127.78" y="211"/>
		</contour>
	</outline>
</glyph>
<glyph name="uni00B9" format="2">
	<unicode hex="00B9"/>
	<advance width="284"/>
	<outline>
		<contour>
			<point x="111" y="499" type="line" smooth="yes"/>
			<point x="111" y="525"/>
			<point x="105" y="545"/>
			<point x="93" y="545" type="curve" smooth="yes"/>
			<point x="84" y="545"/>
			<point x="60" y="534"/>
			<point x="49" y="529" type="curve"/>
			<point x="44" y="530"/>
			<point x="38" y="541"/>
			<point x="38" y="549" type="curve" smooth="yes"/>
			<point x="38" y="550"/>
			<point x="38" y="555"/>
			<point x="39" y="556" type="curve"/>
			<point x="108" y="585"/>
			<point x="189" y="626"/>
			<point x="191" y="626" type="curve" smooth="yes"/>
			<point x="192" y="626" type="line" smooth="yes"/>
			<point x="196" y="626"/>
			<point x="207" y="609"/>
			<point x="208" y="606" type="curve"/>
			<point x="205" y="595"/>
			<point x="196" y="561"/>
			<point x="196" y="523" type="curve" smooth="yes"/>
			<point x="196" y="338" type="line" smooth="yes"/>
			<point x="196" y="320"/>
			<point x="199" y="291"/>
			<point x="206" y="284" type="curve" smooth="yes"/>
			<point x="214" y="275"/>
			<point x="247" y="271"/>
			<point x="252" y="271" type="curve"/>
			<point x="254" y="271"/>
			<point x="253" y="247"/>
			<point x="252" y="246" type="curve"/>
			<point x="229" y="247"/>
			<point x="177" y="250"/>
			<point x="154" y="250" type="curve" smooth="yes"/>
			<point x="131" y="250"/>
			<point x="78" y="247"/>
			<point x="55" y="246" type="curve"/>
			<point x="52" y="249"/>
			<point x="52" y="271"/>
			<point x="55" y="271" type="curve"/>
			<point x="63" y="271"/>
			<point x="95" y="277"/>
			<point x="102" y="285" type="curve" smooth="yes"/>
			<point x="107" y="291"/>
			<point x="111" y="328"/>
			<point x="111" y="339" type="curve" smooth="yes"/>
		</contour>
	</outline>
</glyph>
<glyph name="threequarters" format="2">
	<unicode hex="00BE"/>
	<advance width="722"/>
	<outline>
		<contour>
			<point x="632" y="377" type="curve" smooth="yes"/>
			<point x="636" y="377"/>
			<point x="651" y="368"/>
			<point x="651" y="358" type="curve" smooth="yes"/>
			<point x="651" y="135" type="line"/>
			<point x="676" y="135" type="line"/>
			<point x="689" y="123"/>
			<point x="692" y="108"/>
			<point x="686" y="90" type="curve"/>
			<point x="651" y="90" type="line"/>
			<point x="651" y="2" type="line"/>
			<point x="651" y="2"/>
			<point x="631" y="-3"/>
			<point x="605" y="-3" type="curve" smooth="yes"/>
			<point x="584" y="-3"/>
			<point x="566" y="0"/>
			<point x="566" y="5" type="curve" smooth="yes"/>
			<point x="566" y="90" type="line"/>
			<point x="417" y="90" type="line"/>
			<point x="412" y="92"/>
			<point x="405" y="98"/>
			<point x="405" y="106" type="curve"/>
			<point x="478" y="194"/>
			<point x="556" y="291"/>
			<point x="619" y="369" type="curve" smooth="yes"/>
			<point x="623" y="374"/>
			<point x="627" y="377"/>
		</contour>
		<contour>
			<point x="566" y="135" type="curve"/>
			<point x="566" y="256" type="line"/>
			<point x="544" y="230"/>
			<point x="479" y="149"/>
			<point x="467" y="135" type="curve"/>
			<point x="462" y="135"/>
			<point x="535" y="135"/>
		</contour>
		<contour>
			<point x="173" y="627" type="curve" smooth="yes"/>
			<point x="208" y="627"/>
			<point x="267" y="605"/>
			<point x="267" y="545" type="curve" smooth="yes"/>
			<point x="267" y="485"/>
			<point x="216" y="470"/>
			<point x="195" y="466" type="curve"/>
			<point x="215" y="465"/>
			<point x="295" y="441"/>
			<point x="295" y="368" type="curve" smooth="yes"/>
			<point x="295" y="281"/>
			<point x="199" y="239"/>
			<point x="123" y="239" type="curve" smooth="yes"/>
			<point x="84" y="239"/>
			<point x="54" y="250"/>
			<point x="42" y="260" type="curve"/>
			<point x="38" y="266"/>
			<point x="33" y="277"/>
			<point x="33" y="286" type="curve" smooth="yes"/>
			<point x="33" y="301"/>
			<point x="43" y="320"/>
			<point x="64" y="320" type="curve" smooth="yes"/>
			<point x="81" y="320"/>
			<point x="93" y="307"/>
			<point x="104" y="290" type="curve" smooth="yes"/>
			<point x="114" y="274"/>
			<point x="131" y="266"/>
			<point x="147" y="266" type="curve" smooth="yes"/>
			<point x="184" y="266"/>
			<point x="207" y="292"/>
			<point x="207" y="346" type="curve" smooth="yes"/>
			<point x="207" y="391"/>
			<point x="177" y="433"/>
			<point x="137" y="433" type="curve" smooth="yes"/>
			<point x="133" y="433"/>
			<point x="115" y="433"/>
			<point x="105" y="430" type="curve"/>
			<point x="103" y="433"/>
			<point x="100" y="439"/>
			<point x="100" y="444" type="curve" smooth="yes"/>
			<point x="100" y="446"/>
			<point x="101" y="454"/>
			<point x="102" y="456" type="curve"/>
			<point x="132" y="460"/>
			<point x="188" y="476"/>
			<point x="188" y="525" type="curve" smooth="yes"/>
			<point x="188" y="557"/>
			<point x="166" y="582"/>
			<point x="130" y="582" type="curve" smooth="yes"/>
			<point x="98" y="582"/>
			<point x="71" y="555"/>
			<point x="67" y="550" type="curve"/>
			<point x="63" y="551"/>
			<point x="52" y="556"/>
			<point x="54" y="566" type="curve"/>
			<point x="76" y="595"/>
			<point x="126" y="627"/>
		</contour>
		<contour>
			<point x="600" y="661" type="curve"/>
			<point x="263" y="-11" type="line" smooth="yes"/>
			<point x="260" y="-18"/>
			<point x="244" y="-29"/>
			<point x="227" y="-33" type="curve" smooth="yes"/>
			<point x="212" y="-36"/>
			<point x="210" y="-24"/>
			<point x="210" y="-24" type="curve"/>
			<point x="547" y="647" type="line"/>
			<point x="553" y="656"/>
			<point x="565" y="664"/>
			<point x="582" y="668" type="curve" smooth="yes"/>
			<point x="591" y="670"/>
			<point x="599" y="666"/>
		</contour>
	</outline>
</glyph>
<glyph name="ae" format="2">
	<unicode hex="00E6"/>
	<advance width="592"/>
	<outline>
		<contour>
			<point x="438" y="402" type="curve" smooth="yes"/>
			<point x="391" y="402"/>
			<point x="357" y="271"/>
			<point x="352" y="221" type="curve"/>
			<point x="390" y="221"/>
			<point x="464" y="292"/>
			<point x="464" y="364" type="curve" smooth="yes"/>
			<point x="464" y="382"/>
			<point x="459" y="402"/>
		</contour>
		<contour>
			<point x="230" y="89" type="curve"/>
			<point x="227" y="103"/>
			<point x="229" y="182"/>
			<point x="235" y="204" type="curve"/>
			<point x="214" y="200"/>
			<point x="173" y="184"/>
			<point x="163" y="178" type="curve" smooth="yes"/>
			<point x="148" y="168"/>
			<point x="128" y="142"/>
			<point x="125" y="121" type="curve"/>
			<point x="117" y="79"/>
			<point x="143" y="61"/>
			<point x="164" y="61" type="curve" smooth="yes"/>
			<point x="184" y="61"/>
			<point x="221" y="81"/>
		</contour>
		<contour>
			<point x="253" y="438" type="curve" smooth="yes"/>
			<point x="295" y="438"/>
			<point x="328" y="417"/>
			<point x="345" y="382" type="curve"/>
			<point x="385" y="417"/>
			<point x="430" y="438"/>
			<point x="472" y="438" type="curve" smooth="yes"/>
			<point x="522" y="438"/>
			<point x="580" y="417"/>
			<point x="580" y="349" type="curve" smooth="yes"/>
			<point x="580" y="248"/>
			<point x="410" y="184"/>
			<point x="349" y="184" type="curve"/>
			<point x="348" y="181"/>
			<point x="347" y="164"/>
			<point x="347" y="159" type="curve" smooth="yes"/>
			<point x="347" y="123"/>
			<point x="357" y="75"/>
			<point x="406" y="75" type="curve" smooth="yes"/>
			<point x="450" y="75"/>
			<point x="502" y="136"/>
			<point x="505" y="139" type="curve"/>
			<point x="514" y="139"/>
			<point x="520" y="115"/>
			<point x="520" y="109" type="curve"/>
			<point x="507" y="88"/>
			<point x="400" y="-6"/>
			<point x="338" y="-6" type="curve" smooth="yes"/>
			<point x="293" y="-6"/>
			<point x="259" y="16"/>
			<point x="241" y="56" type="curve"/>
			<point x="226" y="45"/>
			<point x="123" y="-8"/>
			<point x="94" y="-8" type="curve" smooth="yes"/>
			<point x="30" y="-8"/>
			<point x="-5" y="53"/>
			<point x="6" y="111" type="curve" smooth="yes"/>
			<point x="14" y="149"/>
			<point x="42" y="181"/>
			<point x="65" y="189" type="curve" smooth="yes"/>
			<point x="100" y="201"/>
			<point x="169" y="222"/>
			<point x="233" y="243" type="curve" smooth="yes"/>
			<point x="238" y="245"/>
			<point x="239" y="248"/>
			<point x="240" y="257" type="curve" smooth="yes"/>
			<point x="243" y="304" type="line" smooth="yes"/>
			<point x="244" y="312"/>
			<point x="244" y="320"/>
			<point x="244" y="328" type="curve" smooth="yes"/>
			<point x="244" y="367"/>
			<point x="237" y="401"/>
			<point x="212" y="401" type="curve" smooth="yes"/>
			<point x="180" y="401"/>
			<point x="164" y="363"/>
			<point x="146" y="319" type="curve" smooth="yes"/>
			<point x="137" y="297"/>
			<point x="121" y="276"/>
			<point x="92" y="276" type="curve" smooth="yes"/>
			<point x="70" y="276"/>
			<point x="50" y="296"/>
			<point x="55" y="323" type="curve" smooth="yes"/>
			<point x="58" y="336"/>
			<point x="65" y="349"/>
			<point x="75" y="363" type="curve"/>
			<point x="89" y="376"/>
			<point x="178" y="438"/>
		</contour>
	</outline>
</glyph>
<glyph name="oslash" format="2">
	<unicode hex="00F8"/>
	<advance width="444"/>
	<outline>
		<contour>
			<point x="326" y="448" type="line"/>
			<point x="332" y="448"/>
			<point x="353" y="444"/>
			<point x="354" y="438" type="curve"/>
			<point x="107" y="-19" type="line"/>
			<point x="101" y="-20"/>
			<point x="84" y="-16"/>
			<point x="80" y="-8" type="curve"/>
		</contour>
		<component base="o"/>
	</outline>
</glyph>
<glyph name="dcroat" format="2">
	<unicode hex="0111"/>
	<advance width="468"/>
	<outline>
		<contour>
			<point x="199" y="543" type="curve"/>
			<point x="226" y="543"/>
			<point x="484" y="543"/>
			<point x="497" y="543" type="curve" smooth="yes"/>
			<point x="501" y="543"/>
			<point x="503" y="539"/>
			<point x="502" y="535" type="curve" smooth="yes"/>
			<point x="501" y="530"/>
			<point x="496" y="512"/>
			<point x="491" y="505" type="curve"/>
			<point x="464" y="505"/>
			<point x="205" y="505"/>
			<point x="192" y="505" type="curve" smooth="yes"/>
			<point x="188" y="505"/>
			<point x="188" y="512"/>
			<point x="189" y="516" type="curve" smooth="yes"/>
			<point x="190" y="521"/>
			<point x="192" y="536"/>
		</contour>
		<component base="d"/>
	</outline>
</glyph>
<glyph name="eogonek" format="2">
	<unicode hex="0119"/>
	<advance width="384"/>
	<outline>
		<contour>
			<point x="142" y="221" type="curve"/>
			<point x="180" y="221"/>
			<point x="254" y="292"/>
			<point x="254" y="364" type="curve" smooth="yes"/>
			<point x="254" y="390"/>
			<point x="250" y="402"/>
			<point x="229" y="402" type="curve" smooth="yes"/>
			<point x="182" y="402"/>
			<point x="147" y="271"/>
		</contour>
		<contour>
			<point x="61" y="-156" type="curve" smooth="yes"/>
			<point x="61" y="-99"/>
			<point x="107" y="-48"/>
			<point x="146" y="-4" type="curve"/>
			<point x="139" y="-6"/>
			<point x="135" y="-6"/>
			<point x="128" y="-6" type="curve" smooth="yes"/>
			<point x="59" y="-6"/>
			<point x="16" y="46"/>
			<point x="16" y="137" type="curve" smooth="yes"/>
			<point x="16" y="282"/>
			<point x="150" y="438"/>
			<point x="262" y="438" type="curve" smooth="yes"/>
			<point x="312" y="438"/>
			<point x="370" y="417"/>
			<point x="370" y="349" type="curve" smooth="yes"/>
			<point x="370" y="248"/>
			<point x="200" y="184"/>
			<point x="139" y="184" type="curve"/>
			<point x="138" y="181"/>
			<point x="137" y="164"/>
			<point x="137" y="159" type="curve" smooth="yes"/>
			<point x="137" y="123"/>
			<point x="147" y="75"/>
			<point x="196" y="75" type="curve" smooth="yes"/>
			<point x="240" y="75"/>
			<point x="292" y="136"/>
			<point x="295" y="139" type="curve"/>
			<point x="304" y="139"/>
			<point x="310" y="115"/>
			<point x="310" y="109" type="curve"/>
			<point x="304" y="99"/>
			<point x="279" y="76"/>
			<point x="248" y="52" type="curve" smooth="yes"/>
			<point x="183" y="1"/>
			<point x="120" y="-65"/>
			<point x="120" y="-119" type="curve" smooth="yes"/>
			<point x="120" y="-142"/>
			<point x="131" y="-152"/>
			<point x="155" y="-152" type="curve" smooth="yes"/>
			<point x="196" y="-152"/>
			<point x="221" y="-122"/>
			<point x="228" y="-117" type="curve"/>
			<point x="235" y="-119"/>
			<point x="232" y="-139"/>
			<point x="230" y="-143" type="curve" smooth="yes"/>
			<point x="208" y="-181"/>
			<point x="160" y="-213"/>
			<point x="119" y="-213" type="curve" smooth="yes"/>
			<point x="81" y="-213"/>
			<point x="61" y="-182"/>
		</contour>
	</outline>
</glyph>
<glyph name="Lslash" format="2">
	<unicode hex="0141"/>
	<advance width="535"/>
	<outline>
		<contour>
			<point x="50" y="205" type="curve" smooth="yes"/>
			<point x="414" y="439" type="line"/>
			<point x="418" y="434"/>
			<point x="430" y="409"/>
			<point x="426" y="406" type="curve" smooth="yes"/>
			<point x="62" y="174" type="line"/>
			<point x="58" y="180"/>
			<point x="46" y="202"/>
		</contour>
		<component base="L" xOffset="1"/>
	</outline>
</glyph>
<glyph name="eng" format="2">
	<unicode hex="014B"/>
	<advance width="491"/>
	<outline>
		<contour>
			<point x="404" y="117" type="line" smooth="yes"/>
			<point x="388" y="35"/>
			<point x="360" y="-19"/>
			<point x="320" y="-73" type="curve" smooth="yes"/>
			<point x="278" y="-129"/>
			<point x="164" y="-205"/>
			<point x="137" y="-213" type="curve"/>
			<point x="132" y="-213"/>
			<point x="127" y="-200"/>
			<point x="127" y="-191" type="curve"/>
			<point x="230" y="-112"/>
			<point x="259" y="-48"/>
			<point x="287" y="98" type="curve" smooth="yes"/>
			<point x="313" y="236" type="line" smooth="yes"/>
			<point x="315" y="248"/>
			<point x="325" y="301"/>
			<point x="325" y="311" type="curve" smooth="yes"/>
			<point x="325" y="321"/>
			<point x="321" y="331"/>
			<point x="310" y="331" type="curve" smooth="yes"/>
			<point x="282" y="331"/>
			<point x="205" y="213"/>
			<point x="178" y="89" type="curve" smooth="yes"/>
			<point x="158" y="0" type="line"/>
			<point x="148" y="-3"/>
			<point x="115" y="-6"/>
			<point x="104" y="-6" type="curve" smooth="yes"/>
			<point x="93" y="-6"/>
			<point x="58" y="-3"/>
			<point x="46" y="0" type="curve"/>
			<point x="104" y="302" type="line" smooth="yes"/>
			<point x="105" y="306"/>
			<point x="108" y="329"/>
			<point x="108" y="334" type="curve" smooth="yes"/>
			<point x="108" y="343"/>
			<point x="104" y="354"/>
			<point x="94" y="354" type="curve" smooth="yes"/>
			<point x="73" y="354"/>
			<point x="27" y="301"/>
			<point x="24" y="295" type="curve"/>
			<point x="17" y="295"/>
			<point x="11" y="315"/>
			<point x="11" y="321" type="curve"/>
			<point x="28" y="352"/>
			<point x="109" y="438"/>
			<point x="162" y="438" type="curve" smooth="yes"/>
			<point x="201" y="438"/>
			<point x="228" y="414"/>
			<point x="228" y="369" type="curve" smooth="yes"/>
			<point x="228" y="355"/>
			<point x="221" y="322"/>
			<point x="219" y="311" type="curve" smooth="yes"/>
			<point x="216" y="297"/>
			<point x="214" y="289"/>
			<point x="209" y="268" type="curve"/>
			<point x="238" y="334"/>
			<point x="325" y="438"/>
			<point x="374" y="438" type="curve" smooth="yes"/>
			<point x="429" y="438"/>
			<point x="444" y="410"/>
			<point x="444" y="354" type="curve" smooth="yes"/>
			<point x="444" y="321"/>
			<point x="430" y="253"/>
			<point x="425" y="228" type="curve" smooth="yes"/>
		</contour>
	</outline>
</glyph>
<glyph name="Tbar" format="2">
	<unicode hex="0166"/>
	<advance width="582"/>
	<outline>
		<contour>
			<point x="147" y="335" type="curve"/>
			<point x="174" y="335"/>
			<point x="457" y="335"/>
			<point x="470" y="335" type="curve" smooth="yes"/>
			<point x="474" y="335"/>
			<point x="476" y="331"/>
			<point x="475" y="327" type="curve" smooth="yes"/>
			<point x="474" y="322"/>
			<point x="469" y="304"/>
			<point x="464" y="297" type="curve"/>
			<point x="437" y="297"/>
			<point x="154" y="297"/>
			<point x="141" y="297" type="curve" smooth="yes"/>
			<point x="137" y="297"/>
			<point x="137" y="304"/>
			<point x="138" y="308" type="curve" smooth="yes"/>
			<point x="139" y="313"/>
			<point x="140" y="328"/>
		</contour>
		<component base="T"/>
	</outline>
</glyph>
<glyph name="Uogonek" format="2">
	<unicode hex="0172"/>
	<advance width="675"/>
	<outline>
		<contour>
			<point x="307" y="-119" type="curve" smooth="yes"/>
			<point x="307" y="-142"/>
			<point x="318" y="-152"/>
			<point x="342" y="-152" type="curve" smooth="yes"/>
			<point x="383" y="-152"/>
			<point x="407" y="-122"/>
			<point x="414" y="-117" type="curve"/>
			<point x="421" y="-119"/>
			<point x="419" y="-139"/>
			<point x="417" y="-143" type="curve" smooth="yes"/>
			<point x="395" y="-181"/>
			<point x="347" y="-213"/>
			<point x="306" y="-213" type="curve" smooth="yes"/>
			<point x="268" y="-213"/>
			<point x="247" y="-182"/>
			<point x="247" y="-156" type="curve" smooth="yes"/>
			<point x="247" y="-95"/>
			<point x="301" y="-47"/>
			<point x="341" y="-3" type="curve"/>
			<point x="321" y="-7"/>
			<point x="302" y="-9"/>
			<point x="281" y="-9" type="curve" smooth="yes"/>
			<point x="205" y="-9"/>
			<point x="138" y="18"/>
			<point x="106" y="77" type="curve" smooth="yes"/>
			<point x="80" y="125"/>
			<point x="77" y="192"/>
			<point x="97" y="294" type="curve" smooth="yes"/>
			<point x="137" y="501" type="line" smooth="yes"/>
			<point x="145" y="543"/>
			<point x="152" y="573"/>
			<point x="148" y="593" type="curve" smooth="yes"/>
			<point x="146" y="606"/>
			<point x="105" y="609"/>
			<point x="93" y="610" type="curve"/>
			<point x="90" y="617"/>
			<point x="95" y="640"/>
			<point x="100" y="646" type="curve"/>
			<point x="134" y="642"/>
			<point x="191" y="640"/>
			<point x="229" y="640" type="curve" smooth="yes"/>
			<point x="267" y="640"/>
			<point x="322" y="642"/>
			<point x="358" y="646" type="curve"/>
			<point x="361" y="640"/>
			<point x="357" y="617"/>
			<point x="351" y="610" type="curve"/>
			<point x="339" y="609"/>
			<point x="296" y="606"/>
			<point x="289" y="593" type="curve" smooth="yes"/>
			<point x="278" y="573"/>
			<point x="272" y="543"/>
			<point x="264" y="501" type="curve" smooth="yes"/>
			<point x="230" y="322" type="line" smooth="yes"/>
			<point x="217" y="256"/>
			<point x="209" y="207"/>
			<point x="220" y="155" type="curve" smooth="yes"/>
			<point x="238" y="69"/>
			<point x="305" y="62"/>
			<point x="340" y="62" type="curve" smooth="yes"/>
			<point x="412" y="62"/>
			<point x="501" y="131"/>
			<point x="534" y="302" type="curve" smooth="yes"/>
			<point x="566" y="468" type="line" smooth="yes"/>
			<point x="574" y="510"/>
			<point x="581" y="567"/>
			<point x="577" y="587" type="curve" smooth="yes"/>
			<point x="573" y="606"/>
			<point x="525" y="609"/>
			<point x="513" y="610" type="curve"/>
			<point x="510" y="617"/>
			<point x="515" y="640"/>
			<point x="520" y="646" type="curve"/>
			<point x="562" y="642"/>
			<point x="590" y="640"/>
			<point x="632" y="640" type="curve" smooth="yes"/>
			<point x="672" y="640"/>
			<point x="702" y="644"/>
			<point x="740" y="646" type="curve"/>
			<point x="743" y="640"/>
			<point x="739" y="617"/>
			<point x="733" y="610" type="curve"/>
			<point x="721" y="609"/>
			<point x="671" y="608"/>
			<point x="659" y="587" type="curve" smooth="yes"/>
			<point x="648" y="567"/>
			<point x="630" y="511"/>
			<point x="622" y="469" type="curve" smooth="yes"/>
			<point x="585" y="279" type="line" smooth="yes"/>
			<point x="561" y="157"/>
			<point x="501" y="76"/>
			<point x="428" y="32" type="curve" smooth="yes"/>
			<point x="380" y="3"/>
			<point x="307" y="-68"/>
		</contour>
	</outline>
</glyph>
<glyph name="acutecomb" format="2">
	<unicode hex="0301"/>
	<outline>
		<contour>
			<point x="-319" y="479" type="curve"/>
			<point x="-322" y="481"/>
			<point x="-327" y="484"/>
			<point x="-328" y="490" type="curve"/>
			<point x="-325" y="500"/>
			<point x="-263" y="589"/>
			<point x="-234" y="616" type="curve" smooth="yes"/>
			<point x="-230" y="620"/>
			<point x="-217" y="623"/>
			<point x="-204" y="623" type="curve" smooth="yes"/>
			<point x="-187" y="623"/>
			<point x="-160" y="609"/>
			<point x="-160" y="583" type="curve" smooth="yes"/>
			<point x="-160" y="549"/>
			<point x="-302" y="483"/>
		</contour>
	</outline>
</glyph>
<glyph name="tildecomb" format="2">
	<unicode hex="0303"/>
	<outline>
		<contour>
			<point x="-287" y="569" type="curve" smooth="yes"/>
			<point x="-264" y="569"/>
			<point x="-247" y="563"/>
			<point x="-230" y="554" type="curve" smooth="yes"/>
			<point x="-209" y="543"/>
			<point x="-194" y="527"/>
			<point x="-165" y="527" type="curve" smooth="yes"/>
			<point x="-133" y="527"/>
			<point x="-107" y="561"/>
			<point x="-100" y="569" type="curve"/>
			<point x="-97" y="568"/>
			<point x="-92" y="566"/>
			<point x="-93" y="558" type="curve" smooth="yes"/>
			<point x="-95" y="542"/>
			<point x="-105" y="526"/>
			<point x="-114" y="516" type="curve" smooth="yes"/>
			<point x="-140" y="489"/>
			<point x="-165" y="479"/>
			<point x="-192" y="479" type="curve" smooth="yes"/>
			<point x="-215" y="479"/>
			<point x="-230" y="484"/>
			<point x="-248" y="494" type="curve" smooth="yes"/>
			<point x="-268" y="505"/>
			<point x="-286" y="521"/>
			<point x="-315" y="521" type="curve" smooth="yes"/>
			<point x="-347" y="521"/>
			<point x="-374" y="487"/>
			<point x="-381" y="479" type="curve"/>
			<point x="-384" y="480"/>
			<point x="-388" y="483"/>
			<point x="-387" y="491" type="curve" smooth="yes"/>
			<point x="-385" y="507"/>
			<point x="-375" y="522"/>
			<point x="-366" y="532" type="curve" smooth="yes"/>
			<point x="-340" y="559"/>
			<point x="-314" y="569"/>
		</contour>
	</outline>
</glyph>
<glyph name="uni0312" format="2">
	<unicode hex="0312"/>
	<advance width="127"/>
	<outline>
		<contour>
			<point x="218" y="620" type="curve"/>
			<point x="222" y="620"/>
			<point x="234" y="613"/>
			<point x="234" y="610" type="curve"/>
			<point x="227" y="608"/>
			<point x="186" y="577"/>
			<point x="186" y="553" type="curve" smooth="yes"/>
			<point x="186" y="532"/>
			<point x="211" y="527"/>
			<point x="211" y="496" type="curve" smooth="yes"/>
			<point x="211" y="470"/>
			<point x="179" y="456"/>
			<point x="150" y="455" type="curve" smooth="yes"/>
			<point x="138" y="455"/>
			<point x="125" y="457"/>
			<point x="116" y="462" type="curve"/>
			<point x="112" y="469"/>
			<point x="111" y="475"/>
			<point x="111" y="483" type="curve" smooth="yes"/>
			<point x="111" y="530"/>
			<point x="176" y="607"/>
		</contour>
	</outline>
</glyph>
<glyph name="quoteleft" format="2">
	<unicode hex="2018"/>
	<advance width="205"/>
	<outline>
		<contour>
			<point x="44" y="535" type="curve" smooth="yes"/>
			<point x="44" y="645"/>
			<point x="162" y="712"/>
			<point x="173" y="712" type="curve" smooth="yes"/>
			<point x="183" y="712"/>
			<point x="193" y="704"/>
			<point x="198" y="691" type="curve"/>
			<point x="127" y="649"/>
			<point x="127" y="616"/>
			<point x="127" y="605" type="curve" smooth="yes"/>
			<point x="127" y="575"/>
			<point x="139" y="555"/>
			<point x="151" y="541" type="curve" smooth="yes"/>
			<point x="164" y="525"/>
			<point x="176" y="516"/>
			<point x="176" y="499" type="curve" smooth="yes"/>
			<point x="176" y="471"/>
			<point x="142" y="440"/>
			<point x="105" y="440" type="curve" smooth="yes"/>
			<point x="97" y="440"/>
			<point x="73" y="446"/>
			<point x="62" y="454" type="curve"/>
			<point x="51" y="470"/>
			<point x="44" y="500"/>
		</contour>
	</outline>
</glyph>
<glyph name="uni201F" format="2">
	<unicode hex="201F"/>
	<advance width="374"/>
	<outline>
		<contour>
			<point x="189" y="617" type="curve" smooth="yes"/>
			<point x="189" y="652"/>
			<point x="196" y="682"/>
			<point x="207" y="698" type="curve"/>
			<point x="218" y="706"/>
			<point x="242" y="712"/>
			<point x="250" y="712" type="curve" smooth="yes"/>
			<point x="287" y="712"/>
			<point x="321" y="681"/>
			<point x="321" y="653" type="curve" smooth="yes"/>
			<point x="321" y="636"/>
			<point x="309" y="627"/>
			<point x="296" y="611" type="curve" smooth="yes"/>
			<point x="284" y="597"/>
			<point x="272" y="577"/>
			<point x="272" y="547" type="curve" smooth="yes"/>
			<point x="272" y="536"/>
			<point x="272" y="503"/>
			<point x="343" y="461" type="curve"/>
			<point x="338" y="448"/>
			<point x="328" y="440"/>
			<point x="318" y="440" type="curve" smooth="yes"/>
			<point x="307" y="440"/>
			<point x="189" y="507"/>
		</contour>
		<contour>
			<point x="20" y="617" type="curve" smooth="yes"/>
			<point x="20" y="652"/>
			<point x="27" y="682"/>
			<point x="38" y="698" type="curve"/>
			<point x="49" y="706"/>
			<point x="73" y="712"/>
			<point x="81" y="712" type="curve" smooth="yes"/>
			<point x="118" y="712"/>
			<point x="152" y="681"/>
			<point x="152" y="653" type="curve" smooth="yes"/>
			<point x="152" y="636"/>
			<point x="140" y="627"/>
			<point x="127" y="611" type="curve" smooth="yes"/>
			<point x="115" y="597"/>
			<point x="103" y="577"/>
			<point x="103" y="547" type="curve" smooth="yes"/>
			<point x="103" y="536"/>
			<point x="103" y="503"/>
			<point x="174" y="461" type="curve"/>
			<point x="169" y="448"/>
			<point x="159" y="440"/>
			<point x="149" y="440" type="curve" smooth="yes"/>
			<point x="138" y="440"/>
			<point x="20" y="507"/>
		</contour>
	</outline>
</glyph>
<glyph name="daggerdbl" format="2">
	<unicode hex="2021"/>
	<advance width="407"/>
	<outline>
		<contour>
			<point x="253" y="267" type="curve"/>
			<point x="241" y="239"/>
			<point x="228" y="215"/>
			<point x="221" y="198" type="curve"/>
			<point x="221" y="186"/>
			<point x="233" y="171"/>
			<point x="248" y="171" type="curve" smooth="yes"/>
			<point x="281" y="172"/>
			<point x="308" y="182"/>
			<point x="327" y="201" type="curve"/>
			<point x="348" y="201"/>
			<point x="364" y="179"/>
			<point x="364" y="158" type="curve" smooth="yes"/>
			<point x="364" y="137"/>
			<point x="348" y="112"/>
			<point x="327" y="112" type="curve"/>
			<point x="308" y="131"/>
			<point x="280" y="146"/>
			<point x="248" y="146" type="curve" smooth="yes"/>
			<point x="235" y="146"/>
			<point x="229" y="143"/>
			<point x="219" y="130" type="curve"/>
			<point x="219" y="98"/>
			<point x="229" y="32"/>
			<point x="248" y="13" type="curve"/>
			<point x="248" y="-8"/>
			<point x="225" y="-23"/>
			<point x="204" y="-23" type="curve" smooth="yes"/>
			<point x="182" y="-23"/>
			<point x="158" y="-8"/>
			<point x="158" y="13" type="curve"/>
			<point x="177" y="32"/>
			<point x="188" y="98"/>
			<point x="188" y="130" type="curve"/>
			<point x="178" y="143"/>
			<point x="172" y="146"/>
			<point x="159" y="146" type="curve" smooth="yes"/>
			<point x="127" y="146"/>
			<point x="99" y="131"/>
			<point x="80" y="112" type="curve"/>
			<point x="59" y="112"/>
			<point x="43" y="137"/>
			<point x="43" y="158" type="curve" smooth="yes"/>
			<point x="43" y="179"/>
			<point x="59" y="201"/>
			<point x="80" y="201" type="curve"/>
			<point x="99" y="182"/>
			<point x="126" y="172"/>
			<point x="159" y="171" type="curve" smooth="yes"/>
			<point x="174" y="171"/>
			<point x="186" y="186"/>
			<point x="186" y="198" type="curve"/>
			<point x="179" y="215"/>
			<point x="164" y="243"/>
			<point x="153" y="267" type="curve"/>
			<point x="167" y="279"/>
			<point x="181" y="304"/>
			<point x="181" y="312" type="curve"/>
			<point x="181" y="321"/>
			<point x="160" y="349"/>
			<point x="153" y="356" type="curve"/>
			<point x="164" y="380"/>
			<point x="179" y="408"/>
			<point x="186" y="425" type="curve"/>
			<point x="186" y="437"/>
			<point x="174" y="452"/>
			<point x="159" y="452" type="curve" smooth="yes"/>
			<point x="126" y="451"/>
			<point x="99" y="441"/>
			<point x="80" y="422" type="curve"/>
			<point x="59" y="422"/>
			<point x="43" y="444"/>
			<point x="43" y="465" type="curve" smooth="yes"/>
			<point x="43" y="486"/>
			<point x="59" y="511"/>
			<point x="80" y="511" type="curve"/>
			<point x="99" y="492"/>
			<point x="127" y="477"/>
			<point x="159" y="477" type="curve" smooth="yes"/>
			<point x="172" y="477"/>
			<point x="178" y="480"/>
			<point x="188" y="493" type="curve"/>
			<point x="188" y="525"/>
			<point x="177" y="591"/>
			<point x="158" y="610" type="curve"/>
			<point x="158" y="631"/>
			<point x="182" y="646"/>
			<point x="204" y="646" type="curve" smooth="yes"/>
			<point x="225" y="646"/>
			<point x="248" y="631"/>
			<point x="248" y="610" type="curve"/>
			<point x="229" y="591"/>
			<point x="219" y="525"/>
			<point x="219" y="493" type="curve"/>
			<point x="229" y="480"/>
			<point x="235" y="477"/>
			<point x="248" y="477" type="curve" smooth="yes"/>
			<point x="280" y="477"/>
			<point x="308" y="492"/>
			<point x="327" y="511" type="curve"/>
			<point x="348" y="511"/>
			<point x="364" y="486"/>
			<point x="364" y="465" type="curve" smooth="yes"/>
			<point x="364" y="444"/>
			<point x="348" y="422"/>
			<point x="327" y="422" type="curve"/>
			<point x="308" y="441"/>
			<point x="281" y="451"/>
			<point x="248" y="452" type="curve" smooth="yes"/>
			<point x="233" y="452"/>
			<point x="221" y="437"/>
			<point x="221" y="425" type="curve"/>
			<point x="228" y="408"/>
			<point x="241" y="384"/>
			<point x="253" y="356" type="curve"/>
			<point x="246" y="349"/>
			<point x="226" y="320"/>
			<point x="226" y="312" type="curve"/>
			<point x="226" y="304"/>
			<point x="239" y="279"/>
		</contour>
	</outline>
</glyph>
<glyph name="uni203E" format="2">
	<unicode hex="203E"/>
	<advance width="833"/>
	<outline>
		<contour>
			<point x="124" y="727" type="curve" smooth="yes"/>
			<point x="124" y="729"/>
			<point x="127" y="787"/>
			<point x="138" y="787" type="curve" smooth="yes"/>
			<point x="706" y="787" type="line" smooth="yes"/>
			<point x="708" y="787"/>
			<point x="712" y="786"/>
			<point x="712" y="778" type="curve" smooth="yes"/>
			<point x="712" y="760"/>
			<point x="705" y="728"/>
			<point x="704" y="724" type="curve" smooth="yes"/>
			<point x="702" y="718"/>
			<point x="697" y="717"/>
			<point x="697" y="717" type="curve"/>
			<point x="130" y="717" type="line"/>
			<point x="130" y="717"/>
			<point x="124" y="717"/>
		</contour>
	</outline>
</glyph>
<glyph name="minus" format="2">
	<unicode hex="2212"/>
	<advance width="595"/>
	<outline>
		<contour>
			<point x="64" y="214" type="curve"/>
			<point x="64" y="214"/>
			<point x="68" y="276"/>
			<point x="78" y="276" type="curve" smooth="yes"/>
			<point x="524" y="276" type="line" smooth="yes"/>
			<point x="527" y="276"/>
			<point x="531" y="277"/>
			<point x="531" y="270" type="curve" smooth="yes"/>
			<point x="531" y="262"/>
			<point x="527" y="227"/>
			<point x="522" y="210" type="curve" smooth="yes"/>
			<point x="520" y="204"/>
			<point x="516" y="204"/>
			<point x="516" y="204" type="curve"/>
			<point x="70" y="204" type="line"/>
			<point x="70" y="204"/>
			<point x="64" y="204"/>
		</contour>
	</outline>
</glyph>
<glyph name="bracketright.latn" format="2">
	<advance width="301"/>
	<outline>
		<contour>
			<point x="210" y="752" type="curve" smooth="yes"/>
			<point x="223" y="751"/>
			<point x="229" y="740"/>
			<point x="229" y="729" type="curve" smooth="yes"/>
			<point x="229" y="-97" type="line" smooth="yes"/>
			<point x="229" y="-108"/>
			<point x="223" y="-118"/>
			<point x="210" y="-119" type="curve" smooth="yes"/>
			<point x="109" y="-119"/>
			<point x="45" y="-128"/>
			<point x="10" y="-135" type="curve"/>
			<point x="8" y="-135"/>
			<point x="4" y="-132"/>
			<point x="4" y="-126" type="curve" smooth="yes"/>
			<point x="4" y="-113"/>
			<point x="12" y="-102"/>
			<point x="14" y="-101" type="curve" smooth="yes"/>
			<point x="43" y="-86"/>
			<point x="98" y="-80"/>
			<point x="124" y="-74" type="curve"/>
			<point x="124" y="707" type="line"/>
			<point x="98" y="713"/>
			<point x="43" y="718"/>
			<point x="14" y="733" type="curve" smooth="yes"/>
			<point x="12" y="734"/>
			<point x="4" y="746"/>
			<point x="4" y="759" type="curve" smooth="yes"/>
			<point x="4" y="765"/>
			<point x="8" y="768"/>
			<point x="10" y="768" type="curve"/>
			<point x="45" y="761"/>
			<point x="109" y="752"/>
		</contour>
	</outline>
</glyph>
<glyph name="f_b" format="2">
	<advance width="770"/>
	<outline>
		<contour>
			<point x="502" y="328" type="line"/>
			<point x="529" y="370"/>
			<point x="607" y="438"/>
			<point x="654" y="438" type="curve" smooth="yes"/>
			<point x="709" y="438"/>
			<point x="743" y="400"/>
			<point x="743" y="329" type="curve" smooth="yes"/>
			<point x="743" y="145"/>
			<point x="575" y="-6"/>
			<point x="464" y="-6" type="curve" smooth="yes"/>
			<point x="402" y="-6"/>
			<point x="351" y="37"/>
			<point x="351" y="104" type="curve" smooth="yes"/>
			<point x="351" y="117"/>
			<point x="353" y="144"/>
			<point x="356" y="158" type="curve" smooth="yes"/>
			<point x="433" y="547" type="line" smooth="yes"/>
			<point x="434" y="551"/>
			<point x="435" y="555"/>
			<point x="436" y="559" type="curve"/>
			<point x="419" y="601"/>
			<point x="381" y="624"/>
			<point x="346" y="624" type="curve" smooth="yes"/>
			<point x="295" y="625"/>
			<point x="253" y="552"/>
			<point x="226" y="414" type="curve"/>
			<point x="323" y="414" type="line" smooth="yes"/>
			<point x="327" y="414"/>
			<point x="328" y="407"/>
			<point x="328" y="402" type="curve" smooth="yes"/>
			<point x="328" y="392"/>
			<point x="322" y="377"/>
			<point x="317" y="369" type="curve"/>
			<point x="217" y="369" type="line"/>
			<point x="217" y="369"/>
			<point x="186" y="180"/>
			<point x="163" y="57" type="curve" smooth="yes"/>
			<point x="132" y="-103"/>
			<point x="21" y="-213"/>
			<point x="-57" y="-213" type="curve" smooth="yes"/>
			<point x="-90" y="-213"/>
			<point x="-118" y="-203"/>
			<point x="-129" y="-195" type="curve"/>
			<point x="-134" y="-187"/>
			<point x="-138" y="-176"/>
			<point x="-138" y="-163" type="curve" smooth="yes"/>
			<point x="-138" y="-139"/>
			<point x="-123" y="-115"/>
			<point x="-101" y="-115" type="curve" smooth="yes"/>
			<point x="-84" y="-115"/>
			<point x="-71" y="-124"/>
			<point x="-60" y="-139" type="curve" smooth="yes"/>
			<point x="-51" y="-152"/>
			<point x="-41" y="-168"/>
			<point x="-23" y="-168" type="curve" smooth="yes"/>
			<point x="15" y="-168"/>
			<point x="20" y="-102"/>
			<point x="50" y="53" type="curve"/>
			<point x="104" y="369" type="line"/>
			<point x="41" y="369" type="line" smooth="yes"/>
			<point x="40" y="369"/>
			<point x="39" y="370"/>
			<point x="39" y="372" type="curve" smooth="yes"/>
			<point x="39" y="382"/>
			<point x="64" y="414"/>
			<point x="86" y="414" type="curve" smooth="yes"/>
			<point x="112" y="414" type="line"/>
			<point x="143" y="574"/>
			<point x="259" y="667"/>
			<point x="372" y="667" type="curve" smooth="yes"/>
			<point x="397" y="667"/>
			<point x="421" y="662"/>
			<point x="442" y="653" type="curve"/>
			<point x="495" y="662"/>
			<point x="557" y="675"/>
			<point x="581" y="685" type="curve"/>
			<point x="586" y="682"/>
			<point x="587" y="672"/>
			<point x="587" y="666" type="curve" smooth="yes"/>
			<point x="587" y="658"/>
			<point x="560" y="611"/>
			<point x="555" y="588" type="curve" smooth="yes"/>
		</contour>
		<contour>
			<point x="590" y="353" type="curve" smooth="yes"/>
			<point x="546" y="353"/>
			<point x="488" y="249"/>
			<point x="471" y="163" type="curve" smooth="yes"/>
			<point x="460" y="108"/>
			<point x="460" y="38"/>
			<point x="495" y="38" type="curve" smooth="yes"/>
			<point x="557" y="38"/>
			<point x="617" y="201"/>
			<point x="617" y="295" type="curve" smooth="yes"/>
			<point x="617" y="319"/>
			<point x="613" y="353"/>
		</contour>
	</outline>
	<anchor name="caret_1" x="233" y="0"/>
</glyph>
<glyph name="gravecomb.cap" format="2">
	<advance width="263"/>
	<outline>
		<contour>
			<point x="390" y="714" type="curve"/>
			<point x="375" y="716"/>
			<point x="196" y="759"/>
			<point x="196" y="798" type="curve" smooth="yes"/>
			<point x="196" y="821"/>
			<point x="228" y="829"/>
			<point x="250" y="829" type="curve" smooth="yes"/>
			<point x="264" y="829"/>
			<point x="286" y="826"/>
			<point x="295" y="821" type="curve" smooth="yes"/>
			<point x="336" y="797"/>
			<point x="393" y="735"/>
			<point x="398" y="727" type="curve"/>
			<point x="398" y="723"/>
			<point x="394" y="717"/>
		</contour>
	</outline>
</glyph>
<glyph name="guillemotleft.latn" format="2">
	<advance width="490"/>
	<outline>
		<contour>
			<point x="208" y="242" type="curve" smooth="yes"/>
			<point x="208" y="247"/>
			<point x="211" y="253"/>
			<point x="215" y="257" type="curve"/>
			<point x="343" y="334"/>
			<point x="415" y="409"/>
			<point x="420" y="413" type="curve"/>
			<point x="426" y="412"/>
			<point x="442" y="405"/>
			<point x="446" y="395" type="curve"/>
			<point x="442" y="389"/>
			<point x="351" y="277"/>
			<point x="315" y="242" type="curve"/>
			<point x="351" y="207"/>
			<point x="442" y="96"/>
			<point x="446" y="90" type="curve"/>
			<point x="442" y="80"/>
			<point x="426" y="72"/>
			<point x="420" y="71" type="curve"/>
			<point x="415" y="75"/>
			<point x="343" y="151"/>
			<point x="215" y="228" type="curve"/>
			<point x="211" y="232"/>
			<point x="208" y="237"/>
		</contour>
		<contour>
			<point x="25" y="242" type="curve" smooth="yes"/>
			<point x="25" y="247"/>
			<point x="28" y="253"/>
			<point x="32" y="257" type="curve"/>
			<point x="160" y="334"/>
			<point x="232" y="409"/>
			<point x="237" y="413" type="curve"/>
			<point x="243" y="412"/>
			<point x="260" y="405"/>
			<point x="264" y="395" type="curve"/>
			<point x="260" y="389"/>
			<point x="169" y="277"/>
			<point x="133" y="242" type="curve"/>
			<point x="169" y="207"/>
			<point x="260" y="96"/>
			<point x="264" y="90" type="curve"/>
			<point x="260" y="80"/>
			<point x="243" y="72"/>
			<point x="237" y="71" type="curve"/>
			<point x="232" y="75"/>
			<point x="160" y="151"/>
			<point x="32" y="228" type="curve"/>
			<point x="28" y="232"/>
			<point x="25" y="237"/>
		</contour>
	</outline>
</glyph>
<glyph name="uni0327.cap" format="2">
	<advance width="396"/>
	<outline>
		<contour>
			<point x="166" y="-4" type="curve"/>
			<point x="196" y="-4" type="line"/>
			<point x="172" y="-29" type="line"/>
			<point x="189" y="-29" type="line" smooth="yes"/>
			<point x="214" y="-29"/>
			<point x="246" y="-49"/>
			<point x="246" y="-78" type="curve" smooth="yes"/>
			<point x="246" y="-130"/>
			<point x="186" y="-168"/>
			<point x="122" y="-168" type="curve" smooth="yes"/>
			<point x="108" y="-168"/>
			<point x="83" y="-163"/>
			<point x="77" y="-158" type="curve"/>
			<point x="75" y="-156"/>
			<point x="73" y="-151"/>
			<point x="73" y="-148" type="curve" smooth="yes"/>
			<point x="73" y="-131"/>
			<point x="82" y="-120"/>
			<point x="93" y="-120" type="curve" smooth="yes"/>
			<point x="113" y="-120"/>
			<point x="119" y="-145"/>
			<point x="148" y="-145" type="curve" smooth="yes"/>
			<point x="173" y="-145"/>
			<point x="192" y="-127"/>
			<point x="192" y="-104" type="curve" smooth="yes"/>
			<point x="192" y="-81"/>
			<point x="177" y="-67"/>
			<point x="163" y="-67" type="curve" smooth="yes"/>
			<point x="151" y="-67"/>
			<point x="145" y="-70"/>
			<point x="133" y="-75" type="curve" smooth="yes"/>
			<point x="131" y="-75"/>
			<point x="117" y="-67"/>
			<point x="117" y="-62" type="curve" smooth="yes"/>
			<point x="117" y="-57"/>
			<point x="138" y="-41"/>
		</contour>
	</outline>
</glyph>
